<svg id="Layer_1" data-name="Layer 1" xmlns="http://www.w3.org/2000/svg" viewBox="0 0 102.67 115.74"><defs><style>.cls-1{fill:#fff;}</style></defs><path class="cls-1" d="M25.87,7.46H76.8c1,.18,2,.34,3,.54a28.32,28.32,0,0,1,22.81,27.87q0,22.91,0,45.81a28.87,28.87,0,0,1-.52,5.57A28.26,28.26,0,0,1,74.2,110.11q-22.85,0-45.71,0a26.12,26.12,0,0,1-5.66-.55q-17.19-4-22-21C.45,87.15.27,85.69,0,84.26V33.33c.18-1,.31-2,.54-3,2.69-11.45,9.69-18.81,21-22C23,7.91,24.43,7.74,25.87,7.46Zm25.46,93.47v0H73.69a21.15,21.15,0,0,0,6.7-1A19.42,19.42,0,0,0,93.54,81.25c-.1-15,0-29.94,0-44.91a20.5,20.5,0,0,0-1-6.6A19.4,19.4,0,0,0,73.79,16.59c-15,.09-29.95,0-44.92,0a20.82,20.82,0,0,0-6.6,1A19.42,19.42,0,0,0,9.12,36.34c.1,15,0,29.94,0,44.91a20.82,20.82,0,0,0,1.27,7.45,19,19,0,0,0,17,12.2C35.36,101,43.34,100.93,51.33,100.93Z"/><path class="cls-1" d="M77.79,58.82a26.46,26.46,0,1,1-26.4-26.49A26.52,26.52,0,0,1,77.79,58.82Zm-9.17-.06A17.29,17.29,0,1,0,51.34,76.09,17.24,17.24,0,0,0,68.62,58.76Z"/><path class="cls-1" d="M78.92,38a6.68,6.68,0,1,1,6.67-6.71A6.71,6.71,0,0,1,78.92,38Z"/></svg>