<svg id="Layer_1" data-name="Layer 1" xmlns="http://www.w3.org/2000/svg" viewBox="0 0 126.14 117.27"><defs><style>.cls-1{fill:#fff;}</style></defs><path class="cls-1" d="M0,98.77c14.14,1.26,26.69-2.14,38-10.7-11.9-1-19.8-7-24.19-18.16a26.61,26.61,0,0,0,11.3-.39C12.39,65.64,5.58,57.19,4.71,43.61a27.21,27.21,0,0,0,11.42,3.22c-11.41-9.59-14-21-7.71-34.71C22.6,28.79,40.34,37.88,62,39.38c-.16-1.46-.33-2.79-.44-4.12a25.77,25.77,0,0,1,19.6-27c9.17-2.16,17.28,0,24.2,6.44a2.23,2.23,0,0,0,2.48.62c2.53-.82,5.14-1.45,7.62-2.41s4.78-2.18,7.29-3.35a19.74,19.74,0,0,1-4.16,7.83c-1.91,2.22-4.15,4.16-6.18,6.16A63.54,63.54,0,0,0,126.14,20a34.24,34.24,0,0,1-2.76,3.65c-2.95,3-6,5.86-9.06,8.72a2.11,2.11,0,0,0-.85,1.75A74.29,74.29,0,0,1,103.1,74.23C92.34,92.61,76.59,104.31,55.69,108.8a74.83,74.83,0,0,1-27.14.79,73,73,0,0,1-28-10.38C.42,99.14.34,99.05,0,98.77Z"/></svg>