<svg id="Layer_1" data-name="Layer 1" xmlns="http://www.w3.org/2000/svg" viewBox="0 0 119.68 119.94"><defs><style>.cls-1{fill:#fff;}</style></defs><path class="cls-1" d="M0,119.94c.18-.72.29-1.22.43-1.72q3.81-13.86,7.64-27.73A3.07,3.07,0,0,0,7.8,88C-3.85,66.43-1.72,40.82,14,21.94,28.38,4.6,47.19-2.65,69.5.86,90,4.09,105.07,15.6,113.69,34.32c10,21.65,7.39,42.64-7,61.64C96,110.14,81.21,117.54,63.47,118.8a56.66,56.66,0,0,1-30.26-6.27,4.56,4.56,0,0,0-3.54-.35c-9.3,2.49-18.62,4.91-27.94,7.35C1.23,119.66.73,119.77,0,119.94ZM29.62,46.32c.44,2,.75,4.09,1.34,6.08,1.16,3.94,3.54,7.23,5.89,10.52,8.17,11.47,18.52,20,32.26,24,5.75,1.67,11.17,1.45,16.25-2.16,3.5-2.48,4.61-5.94,4.58-9.93a2.67,2.67,0,0,0-1.19-2c-3.92-2-7.89-3.88-11.88-5.71-1.66-.77-2.4-.46-3.55,1q-2.11,2.65-4.27,5.27a2.39,2.39,0,0,1-3,.82A40.59,40.59,0,0,1,45.42,56.4a2.15,2.15,0,0,1,.3-2.79c1.06-1.19,2.1-2.41,3.07-3.68a4.5,4.5,0,0,0,.6-5q-2.18-4.73-4-9.59c-.87-2.35-2.24-3.64-4.86-3.28-.52.07-1.1-.15-1.59,0a9.39,9.39,0,0,0-3.36,1.36A17.12,17.12,0,0,0,29.62,46.32Z"/></svg>