<svg version="1.1" xmlns="http://www.w3.org/2000/svg" width="10" height="18" viewBox="0 0 569 1024">
<title></title>
<path fill="#E5E5E5" d="M548.621 918.502l-375.865-406.528 375.865-406.528c8.373-9.031 13.51-21.165 13.51-34.499 0-17.574-8.924-33.064-22.488-42.186l-0.182-0.115-28.558-18.83c-7.909-5.327-17.652-8.503-28.136-8.503-14.72 0-27.978 6.261-37.256 16.264l-0.030 0.032-425.188 459.89c-8.372 9.022-13.509 21.149-13.509 34.475s5.137 25.452 13.538 34.507l-0.030-0.032 425.301 459.947c9.298 10.032 22.546 16.291 37.255 16.291 10.475 0 20.208-3.174 28.291-8.612l-0.181 0.115 28.558-18.944c13.762-9.222 22.7-24.713 22.7-42.291 0-13.343-5.15-25.483-13.57-34.541l0.029 0.031z"></path>
</svg>
