<svg id="Layer_1" data-name="Layer 1" xmlns="http://www.w3.org/2000/svg" viewBox="0 0 57.26 49.61"><defs><style>.cls-1{fill:#fff;}</style></defs><path class="cls-1" d="M24.27,34.32a5.62,5.62,0,0,1,2.85-.44c3,.47,6.05.9,9.07,1.33l2.94.41c.71.1.95-.15,1.11-.44s.11-.4-.06-.93L38.43,29q-3.32-9.91-6.58-19.86a1.07,1.07,0,0,0-.75-.75,1,1,0,0,0-.92.34c-2.61,2.68-5.32,5.35-7.93,7.94l-.88.87a3.58,3.58,0,0,1-1.37.85q-7.14,2.4-14.29,4.77a7.56,7.56,0,0,0-5.06,5A8.35,8.35,0,0,0,2,36a7.88,7.88,0,0,0,6.89,3.17,10.88,10.88,0,0,0,2.35-.55q.39-.14.78-.24a2.05,2.05,0,0,1,.58-.09,1.59,1.59,0,0,1,1.31.71c1.9,2.54,3.82,5.08,5.73,7.62l1.56,2.08c.46.61.73.64,1.33.44,2.58-.85,5.17-1.7,7.74-2.58A1.06,1.06,0,0,0,31,46a1.12,1.12,0,0,0-.29-1l-6.17-8.15L24,36.2,23,34.78l1.28-.45m2.84,8.73,1.68,2.22-2.48.82c-1,.34-2,.67-3,1a1.67,1.67,0,0,1-.49.08,1.36,1.36,0,0,1-1.16-.69L17.46,41l-2.65-3.53,3.9-1.3,1.53-.5a1.53,1.53,0,0,1,1.56.44C23.56,38.4,25.31,40.71,27.09,43.06Zm9.39-9.53-.43-.05-2.59-.37c-2.34-.34-4.67-.67-7-1a3,3,0,0,0-1.23.11l-2.78.9c-3.92,1.28-8,2.6-11.91,4a5.91,5.91,0,0,1-2,.34,6.59,6.59,0,0,1-3.42-1A6.54,6.54,0,0,1,2,32.05a6.74,6.74,0,0,1,4.32-7.29c4.6-1.46,9.25-3,13.74-4.57l1-.33a3.05,3.05,0,0,0,1.13-.7c1.7-1.66,3.38-3.35,5.06-5L29,12.31l.27-.25,1.31-1.26L38.2,33.7Z"/><path class="cls-1" d="M56.64,29.38a.91.91,0,0,1-.52.83H56a2.14,2.14,0,0,1-.32,0q-6.27-1.17-12.54-2.36a.72.72,0,0,1-.64-.64.85.85,0,0,1,.79-1,.71.71,0,0,1,.2,0Q49.73,27.4,56,28.59A.78.78,0,0,1,56.64,29.38Z"/><path class="cls-1" d="M47.78,4.47c-1,1.08-2,2.16-3,3.24l-2.67,2.91c-.91,1-1.82,2-2.75,3a.93.93,0,0,1-.79.33.85.85,0,0,1-.65-.48.87.87,0,0,1,.23-1l3.48-3.81,2-2.16q1.47-1.62,3-3.23a1,1,0,0,1,.72-.33h.07a.78.78,0,0,1,.59.36,1.18,1.18,0,0,1,.08.16A.93.93,0,0,1,47.78,4.47Z"/><path class="cls-1" d="M52,17.29a2,2,0,0,1-.48.2L47.8,18.73l-6.37,2.11c-.49.17-.69.12-.84,0-.47-.26-.5-.53-.48-.76a.83.83,0,0,1,.64-.82c.33-.13.66-.24,1-.35l2.61-.86Q47.66,17,51,15.9a2,2,0,0,1,.61-.09,1.87,1.87,0,0,1,.34,0c.11,0,.4.09.47.62A.72.72,0,0,1,52,17.29Z"/></svg>