<svg id="Layer_1" data-name="Layer 1" xmlns="http://www.w3.org/2000/svg" viewBox="0 0 47.96 50.02"><defs><style>.cls-1{fill:#fff;}</style></defs><path class="cls-1" d="M46.59,12.52a3.78,3.78,0,0,0-2.75-1.44C42.44,11,41,11,39.65,11H37.72l-.41,0-.44,0v-.24c0-.47,0-.94,0-1.41,0-1.06,0-2.07,0-3.1a5.15,5.15,0,0,0-1.11-3.47c-1.16-1.33-2.66-1.72-4.86-1.25-.72.15-.86.33-.86,1.1V3.88c0,1.11,0,2.27,0,3.4a4.78,4.78,0,0,1-2,4.23,13.57,13.57,0,0,1-2,1.15l-.56.28a.86.86,0,0,1-.79-.1,2.11,2.11,0,0,0-1.4-.48h-4a1.89,1.89,0,0,0-2,2.06V27.59a1.9,1.9,0,0,0,2,2.05h.57c1,0,2,0,3.06,0a10.47,10.47,0,0,0,1.26-.17l.72-.12.12,0,.08.09a4.85,4.85,0,0,0,3.47,1H39.87c.64,0,1.21,0,1.74-.08a4.37,4.37,0,0,0,4.1-3.8c.62-3.75,1.22-7.45,1.77-11A3.87,3.87,0,0,0,46.59,12.52Zm-23,15.36H19.06V14h4.57ZM45.71,16.15l-.06.37-1.32,9.62a2.7,2.7,0,0,1-2.55,2.48,11.74,11.74,0,0,1-1.29.08H28.29a2.53,2.53,0,0,1-2.44-1.36,2.87,2.87,0,0,1-.32-1.26c0-1.93,0-3.85,0-5.78V15.36a.79.79,0,0,1,.64-.86A9.89,9.89,0,0,0,30,12.1a6.41,6.41,0,0,0,1.87-4.57c0-1,0-1.93,0-2.91V3.05l.22,0a2.7,2.7,0,0,1,2.21.52,3,3,0,0,1,.93,2.33c0,1.29,0,2.6,0,3.87,0,.57,0,1.14,0,1.7,0,.88.28,1.15,1.17,1.15H43.3A2.49,2.49,0,0,1,45.83,15,10.1,10.1,0,0,1,45.71,16.15Z"/><path class="cls-1" d="M44.62,33.62a6.1,6.1,0,0,1-5.15,3.8c-1.62,0-3.28,0-4.88,0H33q-5.59,0-11.19,0a1.64,1.64,0,0,0-1.15.47c-3.46,3.33-6.27,6-8.86,8.46a1.47,1.47,0,0,1-.82.37.83.83,0,0,1-.63-.14,1,1,0,0,1-.21-.7V37.55H8.77c-.79,0-1.53,0-2.27,0a6,6,0,0,1-5.72-6c0-7.21,0-13.65,0-19.69A6,6,0,0,1,7,5.82c3,0,6,0,9,0H26.35c.64,0,1,.3,1,.82a.8.8,0,0,1-.72.82,3.53,3.53,0,0,1-.46,0H21.67q-7.19,0-14.39,0a5.56,5.56,0,0,0-2.16.4,4.13,4.13,0,0,0-2.62,4c0,6.28,0,12.86,0,19.55A4.34,4.34,0,0,0,7,35.79h3.7c1,0,1.22.24,1.22,1.19v6.91l.59-.53.27-.25,1.72-1.65q2.7-2.6,5.39-5.2a1.76,1.76,0,0,1,1.36-.54h7.33c3.35,0,6.69,0,10,0h0a4.59,4.59,0,0,0,3.71-1.62A6.9,6.9,0,0,0,43,33a.89.89,0,0,1,1.12-.5A.85.85,0,0,1,44.62,33.62Z"/></svg>