<svg id="Layer_1" data-name="Layer 1" xmlns="http://www.w3.org/2000/svg" viewBox="0 0 39.92 49.61"><defs><style>.cls-1{fill:#fff;stroke:#fff;stroke-miterlimit:10;stroke-width:0.25px;}</style></defs><path class="cls-1" d="M6.71,5.92a2.7,2.7,0,0,1,2,.92Q21.91,20.06,35.1,33.23a2.94,2.94,0,0,1,.62.91c1.19,2.71,2.35,5.44,3.53,8.16a.83.83,0,0,1-1.1,1.18L29.4,40.26a1.92,1.92,0,0,1-.64-.42Q15.3,26.4,1.87,12.94A2,2,0,0,1,1.41,12a3.34,3.34,0,0,1,1-3.42C3,8.06,3.52,7.49,4.06,6.91A3.23,3.23,0,0,1,6.71,5.92ZM2.6,11l-.12.06A3.52,3.52,0,0,0,3,12.22q13.23,13.29,26.5,26.53a1.46,1.46,0,0,0,.51.35c1.35.51,2.71,1,4.06,1.5a.51.51,0,0,0,.64-.13c.44-.47.91-.92,1.38-1.36a.44.44,0,0,0,.11-.59c-.55-1.23-1.06-2.47-1.61-3.7a2.84,2.84,0,0,0-.54-.79L7.79,7.75a2,2,0,0,0-2.69,0L3.17,9.65A1.73,1.73,0,0,0,2.6,11Z"/></svg>