<svg id="Layer_1" data-name="Layer 1" xmlns="http://www.w3.org/2000/svg" viewBox="0 0 46.45 49.61"><defs><style>.cls-1{fill:#fff;stroke:#fff;stroke-miterlimit:10;}</style></defs><path class="cls-1" d="M41.38,11.67a2.72,2.72,0,0,1-.16.38c-.25.41-.5.82-.79,1.21A4.77,4.77,0,0,0,41,19.78a4.34,4.34,0,0,0,2.28,1c.55.1,1.09.22,1.63.34a.61.61,0,0,1,.52.59,21.42,21.42,0,0,1,0,6.09.69.69,0,0,1-.56.65c-.49.1-1,.23-1.47.29a4.45,4.45,0,0,0-3.88,3.57A3.83,3.83,0,0,0,40,35.61c.39.61.79,1.21,1.19,1.82a.61.61,0,0,1-.05.78,23.16,23.16,0,0,1-4.34,4.34.61.61,0,0,1-.78.06c-.55-.37-1.11-.75-1.68-1.1a4.82,4.82,0,0,0-6.16,1.08,5.63,5.63,0,0,0-.95,2.71C27,46.79,27,46.79,25.54,47a21.22,21.22,0,0,1-5.28-.11.55.55,0,0,1-.54-.45c-.12-.53-.26-1-.34-1.59-.32-2.18-1.48-3.38-4.09-4a3.61,3.61,0,0,0-2.78.56c-.61.39-1.22.78-1.82,1.19a.61.61,0,0,1-.78,0,23.19,23.19,0,0,1-4.37-4.37.56.56,0,0,1-.06-.71c.29-.44.56-.89.86-1.32a4.76,4.76,0,0,0-.68-6.45,4.63,4.63,0,0,0-2.46-1c-.49-.08-1-.2-1.46-.31a.58.58,0,0,1-.49-.56,22.47,22.47,0,0,1,0-6.13.64.64,0,0,1,.54-.62c.49-.1,1-.24,1.46-.31,2.29-.31,3.35-1.56,4-3.79a3.62,3.62,0,0,0-.48-3L5.52,12.1a.64.64,0,0,1,.05-.82A23.41,23.41,0,0,1,9.91,7a.59.59,0,0,1,.75,0c.58.38,1.16.77,1.75,1.13a4.8,4.8,0,0,0,6.24-1.3,6,6,0,0,0,.8-2.42c.07-.39.18-.77.26-1.16a.6.6,0,0,1,.59-.51,23.07,23.07,0,0,1,6.1,0,.65.65,0,0,1,.63.58c.1.5.23,1,.3,1.51a4.27,4.27,0,0,0,3,3.62A4.15,4.15,0,0,0,34.44,8c.53-.37,1.07-.71,1.61-1.06a.61.61,0,0,1,.78.07,23.15,23.15,0,0,1,4.31,4.31C41.23,11.4,41.3,11.54,41.38,11.67Zm-.93.09a2,2,0,0,0-.21-.3c-.94-1-1.88-2-2.85-3-.3-.31-.67-.76-1-.77s-.76.42-1.15.66l-.46.3a4.78,4.78,0,0,1-4.34.51A5.09,5.09,0,0,1,26.6,5.09c-.08-.45-.18-.89-.26-1.34A.37.37,0,0,0,26,3.4a17.28,17.28,0,0,0-4.31-.09c-1.47.18-1.12-.18-1.42,1.3a6.39,6.39,0,0,1-1,2.65A5.58,5.58,0,0,1,12,8.71c-.47-.29-.92-.62-1.39-.91a.46.46,0,0,0-.41,0,20,20,0,0,0-3.77,3.76.47.47,0,0,0,0,.43c.31.52.66,1,1,1.51a4.66,4.66,0,0,1,.51,4,5.19,5.19,0,0,1-4.38,4.08c-.36.05-.72.16-1.09.21s-.39.17-.43.46a17.93,17.93,0,0,0-.07,4.39c.16,1.3-.14,1,1.14,1.25A5.37,5.37,0,0,1,7,30.07c1.23,1.9,1.7,4.18.13,6.39-.23.32-.44.67-.68,1a.41.41,0,0,0,0,.59,21.3,21.3,0,0,0,3.7,3.65.46.46,0,0,0,.44,0c.48-.28.93-.61,1.4-.91a4.75,4.75,0,0,1,4.25-.51,5.12,5.12,0,0,1,3.86,4.08c.09.46.19.92.27,1.39,0,.23.13.32.38.35a18.08,18.08,0,0,0,4.47.09c1.07-.12,1.1-.12,1.25-1.19a5.23,5.23,0,0,1,3.41-4.52,5,5,0,0,1,4.78.29c.48.3.95.64,1.43.93a.49.49,0,0,0,.44,0A20,20,0,0,0,40.29,38a.54.54,0,0,0,0-.48c-.31-.52-.67-1-1-1.54a4.58,4.58,0,0,1-.52-3.78A5.23,5.23,0,0,1,43.14,28c.37-.07.73-.15,1.1-.2a.49.49,0,0,0,.49-.5A18.48,18.48,0,0,0,44.81,23c-.13-1.18-.15-1.18-1.34-1.39A5.27,5.27,0,0,1,40,19.83a5.46,5.46,0,0,1-.43-6.76c.24-.33.46-.68.69-1A2.32,2.32,0,0,0,40.45,11.76Z"/><path class="cls-1" d="M23.34,10.9a13.85,13.85,0,1,1-13.83,14A13.86,13.86,0,0,1,23.34,10.9Zm0,.88a13,13,0,1,0,13,12.82A13,13,0,0,0,23.35,11.78Z"/></svg>