<svg id="Layer_1" data-name="Layer 1" xmlns="http://www.w3.org/2000/svg" viewBox="0 0 53.54 49.61"><defs><style>.cls-1{fill:#fff;}</style></defs><path class="cls-1" d="M53,5.22C52.46,2.1,50.54.3,47.68.3H10.47C8.58.3,6.68.3,4.78.32,2.2.36,0,2.82,0,5.7c0,8.91,0,18.06,0,27.22A5.48,5.48,0,0,0,1.87,37.2a4.82,4.82,0,0,0,3.34,1.21H21v8.66H16.44l-1,0a1,1,0,0,0-1,.77A1,1,0,0,0,14.85,49a1.5,1.5,0,0,0,.88.29c1.65,0,3.31,0,5,0h3.7q6.43,0,12.87,0a1.55,1.55,0,0,0,.89-.29,1,1,0,0,0,.29-1.13,1,1,0,0,0-1-.8H31.93V38.41H47.54c.26,0,.53,0,.78,0a4.93,4.93,0,0,0,4.4-3.84A10.34,10.34,0,0,0,53,32.1c0-7.33,0-14.66,0-22V5.89A3.77,3.77,0,0,0,53,5.22ZM29.88,47H23.09V38.45h6.79ZM51,32.82a3.13,3.13,0,0,1-3,3.36H5.2a3.11,3.11,0,0,1-2.37-1A3.82,3.82,0,0,1,2,32.63V6A3.14,3.14,0,0,1,5.12,2.55H47.76c2,0,3.07,1.13,3.22,3.28,0,.36,0,.72,0,1.08Z"/><path class="cls-1" d="M30.59,10.66c-.67,2.09-1.36,4.18-2,6.26l-1.43,4.37c-.81,2.52-1.66,5.12-2.52,7.67a2.08,2.08,0,0,1-.74.93.88.88,0,0,1-1.12-.15,1.11,1.11,0,0,1-.32-1.29c.67-2,1.33-4.07,2-6.1l1.13-3.45,2.88-8.81a1.17,1.17,0,0,1,1.16-.95h0a1.08,1.08,0,0,1,.85.43A1.25,1.25,0,0,1,30.59,10.66Z"/><path class="cls-1" d="M19.4,24.84c.52.52.63.95.37,1.46a1.15,1.15,0,0,1-.83.62,1.09,1.09,0,0,1-.93-.31c-2-2-4.13-4.09-6.26-6.26q-.78-.8.15-1.74,1.88-1.89,3.77-3.77l1.69-1.7.51-.5a1.34,1.34,0,0,1,.95-.41,1,1,0,0,1,.76.32,1.09,1.09,0,0,1-.09,1.65c-1.13,1.14-2.27,2.27-3.41,3.41L14.6,19.09l-.19.2-.27.29,1.6,1.6Q17.58,23,19.4,24.84Z"/><path class="cls-1" d="M41,20.59l-.52.53-5.38,5.37a1.28,1.28,0,0,1-1.19.38,1.12,1.12,0,0,1-.8-.8c-.13-.42,0-.76.46-1.22q2.31-2.33,4.64-4.64a1.77,1.77,0,0,1,.32-.23l.2-.13.25-.17-5.4-5.39a1.23,1.23,0,0,1-.49-1.13,1.12,1.12,0,0,1,.71-.87,1.07,1.07,0,0,1,.39-.07,1.26,1.26,0,0,1,.75.26,1.39,1.39,0,0,1,.21.21l1.58,1.57L41,18.52C41.8,19.31,41.81,19.81,41,20.59Z"/></svg>